<?xml version="1.0" encoding="UTF-8"?>
<!-- Created with Inkscape (http://www.inkscape.org/) -->
<svg width="862.48" height="1203.1" version="1.0" xml:space="preserve" xmlns="http://www.w3.org/2000/svg" xmlns:cc="http://creativecommons.org/ns#" xmlns:dc="http://purl.org/dc/elements/1.1/" xmlns:rdf="http://www.w3.org/1999/02/22-rdf-syntax-ns#"><metadata><rdf:RDF><cc:Work rdf:about=""><dc:format>image/svg+xml</dc:format><dc:type rdf:resource="http://purl.org/dc/dcmitype/StillImage"/></cc:Work></rdf:RDF></metadata><g transform="translate(-143.03 118.52)"><g transform="translate(0,-2)"><g stroke="#000"><path d="m879.17 429.72c12.719 20.153 34.188 53.517 49.101 77.448-94.558 62.035-192.99 56.331-253.45-14.971-64.444-75.993-66.304-228.43-63.508-286.79 18.358-0.83451 48.319-3.5111 57.231-3.5111 5.0425 82.249 18.054 182.14 64.855 227.57 33.101 32.131 82.611 40.892 145.78 0.2569z" fill="#ed1c24" stroke-width="2.5"/><g transform="matrix(10.006 0 0 10.006 219.62 -4531.2)"><path d="m78.101 495.63c0.29825-0.90837-0.46131-1.5481-0.87645-1.1424 0.26032-0.94871-0.568-1.62-0.94092-1.2683 0.32817-0.87937-0.39191-1.5802-1.0196-1.2448 0.28761-1.1073-0.60066-1.4851-0.93921-1.2418 0.36278-1.0124-0.80924-1.6254-1.1327-1.2766 0.24706-1.28-1.0689-1.4466-1.3247-1.1909 0.16858-0.94937-1.2979-1.5959-1.5218-0.66429-0.78517 3.9897-2.3574 6.3112-3.7465 7.6778l4.9686 7.6452c2.0461-1.4548 5.1469-4.4234 6.5333-7.294z" fill="#eac102" stroke-width=".24984"/><g fill="none" stroke-width=".24984"><path d="m77.225 494.48c-1.5429 2.9044-3.9784 5.5859-6.347 7.3623"/><path d="m76.284 493.22c-0.85833 2.009-3.1679 5.4286-6.0914 7.5918"/><path d="m75.264 491.97c-0.73213 2.0081-2.8846 5.4295-5.7933 7.7329"/><path d="m74.325 490.73c-0.8843 2.5904-3.2372 6.0952-5.5984 7.8194"/><path d="m73.192 489.45c-0.42847 1.4684-1.9862 5.5158-5.148 8.0461"/><path d="m71.868 488.26c-0.23701 1.1242-1.37 5.4427-4.5553 8.1107"/></g><path d="m71.791 503.31c-0.24434-0.57612-4.5135-6.7658-5.2655-8.1688-0.28275-0.57608-1.7548 0.25295-1.485 0.82909 0.78934 1.3389 4.9893 7.8811 5.202 8.198 0.18701 0.5841 1.8268-0.36357 1.5482-0.85825z" fill="#eac102" stroke-width=".27598"/></g><path d="m882.73 490.46c-3.5801 2.8229-8.2126 4.9729-14.366 7.5384l6.3899 11.678c-2.6636 2.4959-13.465 6.5329-18.153 7.0473l-5.9591-12.011c-3.9212 1.648-11.061 3.34-14.329 3.5435l-8.1735-15.744c4.7774-0.53793 11.09-1.8427 15.2-3.4231l-6.5476-13.128c4.1845-0.75986 13.434-2.9787 17.721-5.834l6.1893 12.325c4.401-1.501 8.5685-3.4121 14.211-6.5636z" display="block" fill="#eac102" stroke-linecap="round" stroke-width="2.5"/></g></g><g transform="matrix(-1 0 0 1 1148.5 -2)"><g stroke="#000"><path d="m879.17 429.72c12.719 20.153 34.188 53.517 49.101 77.448-94.558 62.035-192.99 56.331-253.45-14.971-64.444-75.993-66.304-228.43-63.508-286.79 18.358-0.83451 48.319-3.5111 57.231-3.5111 5.0425 82.249 18.054 182.14 64.855 227.57 33.101 32.131 82.611 40.892 145.78 0.2569z" fill="#ed1c24" stroke-width="2.5"/><g transform="matrix(10.006 0 0 10.006 219.62 -4531.2)"><path d="m78.101 495.63c0.29825-0.90837-0.46131-1.5481-0.87645-1.1424 0.26032-0.94871-0.568-1.62-0.94092-1.2683 0.32817-0.87937-0.39191-1.5802-1.0196-1.2448 0.28761-1.1073-0.60066-1.4851-0.93921-1.2418 0.36278-1.0124-0.80924-1.6254-1.1327-1.2766 0.24706-1.28-1.0689-1.4466-1.3247-1.1909 0.16858-0.94937-1.2979-1.5959-1.5218-0.66429-0.78517 3.9897-2.3574 6.3112-3.7465 7.6778l4.9686 7.6452c2.0461-1.4548 5.1469-4.4234 6.5333-7.294z" fill="#eac102" stroke-width=".24984"/><g fill="none" stroke-width=".24984"><path d="m77.225 494.48c-1.5429 2.9044-3.9784 5.5859-6.347 7.3623"/><path d="m76.284 493.22c-0.85833 2.009-3.1679 5.4286-6.0914 7.5918"/><path d="m75.264 491.97c-0.73213 2.0081-2.8846 5.4295-5.7933 7.7329"/><path d="m74.325 490.73c-0.8843 2.5904-3.2372 6.0952-5.5984 7.8194"/><path d="m73.192 489.45c-0.42847 1.4684-1.9862 5.5158-5.148 8.0461"/><path d="m71.868 488.26c-0.23701 1.1242-1.37 5.4427-4.5553 8.1107"/></g><path d="m71.791 503.31c-0.24434-0.57612-4.5135-6.7658-5.2655-8.1688-0.28275-0.57608-1.7548 0.25295-1.485 0.82909 0.78934 1.3389 4.9893 7.8811 5.202 8.198 0.18701 0.5841 1.8268-0.36357 1.5482-0.85825z" fill="#eac102" stroke-width=".27598"/></g><path d="m882.73 490.46c-3.5801 2.8229-8.2126 4.9729-14.366 7.5384l6.3899 11.678c-2.6636 2.4959-13.465 6.5329-18.153 7.0473l-5.9591-12.011c-3.9212 1.648-11.061 3.34-14.329 3.5435l-8.1735-15.744c4.7774-0.53793 11.09-1.8427 15.2-3.4231l-6.5476-13.128c4.1845-0.75986 13.434-2.9787 17.721-5.834l6.1893 12.325c4.401-1.501 8.5685-3.4121 14.211-6.5636z" display="block" fill="#eac102" stroke-linecap="round" stroke-width="2.5"/></g></g><g transform="matrix(-1 0 0 1 1148.5 6)" fill="#e6e6e6" stroke="#000"><g transform="rotate(-.45701 560.45 372.96)" stroke-width="2.5"><path d="m260.23 207.6 19.932 18.531 17.182-18.48 9.7092 8.6949-17.348 18.659 20.05 18.641 29.028-31.221-14.877-13.832 8.661-9.3157 14.877 13.832 12.444-13.384 0.16924 0.15325 9.4061 8.7456 0.15965 0.15301-12.444 13.384 14.877 13.832-8.661 9.3156-14.877-13.832-29.028 31.221 20.341 18.807 17.348-18.658 9.3783 9.051-17.182 18.48 19.915 18.466 29.027-31.221-10.53-9.7908 8.661-9.3157 10.531 9.7909 21.925-23.582-109.01-101.3-21.975 23.636 10.531 9.7909-8.661 9.3156-10.531-9.7909z"/><path d="m327.03 114.14-19.77 21.264 530.52 491.83 20.207-22.58z" fill-rule="evenodd"/></g><g transform="matrix(1.05 0 0 1.05 920.86 -76.939)" stroke-width="2.381"><path transform="translate(141.84 -123.32)" d="m-196.34 763.5c-5.4584 0.34543-12.824 4.2716-19.281 10.781-9.3928 9.4686-13.318 20.812-8.75 25.344 2.9053 2.8821 8.5535 2.295 14.688-0.9375v80.656c-6.134-3.2325-11.782-3.8196-14.688-0.9375-4.5682 4.5316-0.64282 15.875 8.75 25.344s20.713 13.469 25.281 8.9375c2.923-2.8996 2.3601-8.6089-0.875-14.812h80.781c-3.2351 6.2036-3.798 11.913-0.875 14.812 4.5682 4.5316 15.888 0.53105 25.281-8.9375s13.318-20.812 8.75-25.344c-2.9053-2.8821-8.5535-2.295-14.688 0.9375v-80.656c6.134 3.2325 11.782 3.8196 14.688 0.9375 4.5682-4.5316 0.64282-15.875-8.75-25.344s-20.713-13.469-25.281-8.9375c-2.923 2.8996-2.3601 8.6089 0.875 14.812h-80.781c3.2351-6.2036 3.798-11.913 0.875-14.812-1.4276-1.4161-3.5189-2.0008-6-1.8438zm10.406 40.406h70.219v70.219h-70.219z"/><path transform="translate(141.84 -123.32)" d="m-209.69 798.71c8.5054-4.4992 14.991-12.024 18.474-18.558"/></g></g><g transform="translate(0,6)" fill="#eac102" stroke="#000"><g transform="rotate(-.45701 560.45 372.96)" fill-rule="evenodd" stroke-width="2.5"><path d="m260.23 207.6 19.932 18.531 17.182-18.48 9.7092 8.6949-17.348 18.659 20.05 18.641 29.028-31.221-14.877-13.832 8.661-9.3157 14.877 13.832 12.444-13.384 0.16924 0.15325 9.4061 8.7456 0.15965 0.15301-12.444 13.384 14.877 13.832-8.661 9.3156-14.877-13.832-29.028 31.221 20.341 18.807 17.348-18.658 9.3783 9.051-17.182 18.48 19.915 18.466 29.027-31.221-10.53-9.7908 8.661-9.3157 10.531 9.7909 21.925-23.582-109.01-101.3-21.975 23.636 10.531 9.7909-8.661 9.3156-10.531-9.7909z"/><path d="m327.09 114.06-19.77 21.264 530.45 491.9 20.207-22.58z"/></g><g transform="matrix(1.05 0 0 1.05 920.86 -76.939)" stroke-width="2.381"><path transform="translate(141.84 -123.32)" d="m-196.34 763.5c-5.4584 0.34543-12.824 4.2716-19.281 10.781-9.3928 9.4686-13.318 20.812-8.75 25.344 2.9053 2.8821 8.5535 2.295 14.688-0.9375v80.656c-6.134-3.2325-11.782-3.8196-14.688-0.9375-4.5682 4.5316-0.64282 15.875 8.75 25.344s20.713 13.469 25.281 8.9375c2.923-2.8996 2.3601-8.6089-0.875-14.812h80.781c-3.2351 6.2036-3.798 11.913-0.875 14.812 4.5682 4.5316 15.888 0.53105 25.281-8.9375s13.318-20.812 8.75-25.344c-2.9053-2.8821-8.5535-2.295-14.688 0.9375v-80.656c6.134 3.2325 11.782 3.8196 14.688 0.9375 4.5682-4.5316 0.64282-15.875-8.75-25.344s-20.713-13.469-25.281-8.9375c-2.923 2.8996-2.3601 8.6089 0.875 14.812h-80.781c3.2351-6.2036 3.798-11.913 0.875-14.812-1.4276-1.4161-3.5189-2.0008-6-1.8438zm10.406 40.406h70.219v70.219h-70.219z"/><path transform="translate(141.84 -123.32)" d="m-209.69 798.71c8.5054-4.4992 14.991-12.024 18.474-18.558"/></g></g><path d="m573.68-114.38v0.59375c-18.345 10.837-140.03 152.3-138.84 227 0.44732 28.051 13.505 99.68 22.562 113.25l116.88 0.34375 116.87-0.34375c9.0579-13.57 22.115-85.199 22.562-113.25 1.1912-74.696-120.5-216.16-138.84-227v-0.59375c-0.17243 0.0561-0.38411 0.14739-0.59375 0.25-0.20964-0.10261-0.42132-0.19389-0.59375-0.25z" fill="#e6e6e6"/><g stroke="#000"><path d="m489.22-13.132c-9.8912 13.955-22.69 35.849-33.938 57.156 2.7548-0.45081 5.7601-3.9968 14.812-4.0312 82.842-0.31551 77.875 0.81554 81.5 3.8125 7.5758 6.2625 6.1888 29.975-1.5625 34.812-4.4736 2.7922-8.879 4.7433-85.156 2.7188-7.5688-0.20089-15.787-4.0855-20.594-12.375-8.417 26.503-12.163 33.803-7.0625 71.5 2.3251-9.2421 9.0333-15.306 21.438-15.344 76.235-0.23353 86.435-2.2372 90.906 2.3125 7.8986 8.0378 4.8759 36.728-1.0312 40.75-5.0258 3.422-7.6242 4.0376-86.5 3.625-14.346-0.075-19.245-3.3024-20.844-5.8125 2.9118 14.012 7.787 45.323 16.219 60.469l116.88 0.34375 116.88-0.34375c8.4318-15.145 13.307-46.457 16.219-60.469-1.599 2.5101-6.4975 5.7374-20.844 5.8125-78.876 0.41264-81.505-0.20301-86.531-3.625-5.9072-4.0216-8.9298-32.712-1.0312-40.75 4.4709-4.5497 14.671-2.546 90.906-2.3125 12.404 0.038 19.112 6.0704 21.438 15.312 5.101-37.697 1.3858-44.966-7.0312-71.469-4.8065 8.2895-13.056 12.174-20.625 12.375-76.277 2.0245-80.651 0.0734-85.125-2.7188-7.7513-4.838-9.1383-28.55-1.5625-34.812 3.6254-2.997-1.3728-4.128 81.469-3.8125 9.0524 0.0345 12.089 3.5804 14.844 4.0312-11.248-21.308-24.078-43.202-33.969-57.156-2.034 5.8153-9.1952 12.143-17.75 12.531-15.824 0.71834-32.683 0.4184-67.281 0.28125-34.599 0.13715-51.488 0.43708-67.312-0.28125-8.5548-0.38835-15.716-6.716-17.75-12.531z" fill="#eac102" stroke-width="3"/><path d="m573.68-114.38v0.59375c-18.345 10.837-140.03 152.3-138.84 227 0.44732 28.051 13.505 99.68 22.562 113.25l116.88 0.34375 116.87-0.34375c9.0579-13.57 22.115-85.199 22.562-113.25 1.1912-74.696-120.5-216.16-138.84-227v-0.59375c-0.17243 0.0561-0.38411 0.14739-0.59375 0.25-0.20964-0.10261-0.42132-0.19389-0.59375-0.25z" fill="none" stroke-linecap="round" stroke-linejoin="round" stroke-width="3.5"/><g transform="translate(0,12)" stroke-width="2.3"><path transform="translate(141.84 -123.32)" d="m799.64 1064.2c19.782-0.5576 24.548 19.92 13.149 28.612l-53.866 33.603-20.049-56.479z" fill="#ed1c24"/><path d="m941.48 940.89c-15.746-0.9025-25.49-1.7251-35.995-3.5726-12.905-2.2694-22.757-9.8612-35.948-10.816-17.249 4.2297-42.944 28.317-68.515 55.53l69.172 23.813c25.856-29.953 51.154-60.545 71.286-64.955z" fill="#e6e6e6"/><path transform="translate(141.84 -123.32)" d="m659.18 1105.3c-22.113 23.532-44.133 49.401-60.518 66.786l45.939 17.252c24.098 7.2096 54.287-26.093 83.75-60.225z" fill="#ed1c24"/><path transform="translate(141.84 -123.32)" d="m429.24 1035.6 3.1664-0.014c235.81 0.6505 292.16 92.7 380.38 57.218-14.799 13.654-26.577 19.272-39.224 33.93-7.7941 9.0336-5.8328 28.25-14.63 34.197-6.6317 4.4833-29.165 1.2905-44.975-2.6822-56.675-14.241-139.49-57.854-281.55-58.194l-3.6894 0.019" fill="#e6e6e6"/><path transform="translate(141.84 -123.32)" d="m644.6 1189.4c-19.585-10.253-6.5729-32.829 12.492-43.193-22.392-5.3001-45.24-6.1938-66.452-22.903-28.245 7.1381-33.537 35.345-12.949 42.581z" fill="#e6e6e6"/><g transform="matrix(-1 0 0 1 1148.5 0)"><path transform="translate(141.84 -123.32)" d="m799.64 1064.2c19.782-0.5576 24.548 19.92 13.149 28.612l-53.866 33.603-20.049-56.479z" fill="#ed1c24"/><path d="m941.48 940.89c-15.746-0.9025-25.49-1.7251-35.995-3.5726-12.905-2.2694-22.757-9.8612-35.948-10.816-17.249 4.2297-42.944 28.317-68.515 55.53l69.172 23.813c25.856-29.953 51.154-60.545 71.286-64.955z" fill="#e6e6e6"/><path transform="translate(141.84 -123.32)" d="m659.18 1105.3c-22.113 23.532-44.133 49.401-60.518 66.786l45.939 17.252c24.098 7.2096 54.287-26.093 83.75-60.225z" fill="#ed1c24"/><path d="m574.25 912.28c235.81 0.6505 292.16 92.7 380.38 57.218-14.799 13.654-26.577 19.272-39.224 33.93-7.7941 9.0336-5.8328 28.25-14.63 34.197-6.6317 4.4833-29.165 1.2905-44.975-2.6822-56.675-14.241-139.49-57.854-281.55-58.194" fill="#e6e6e6"/><path transform="translate(141.84 -123.32)" d="m644.6 1189.4c-19.585-10.253-6.5729-32.829 12.492-43.193-22.392-5.3001-45.24-6.1938-66.452-22.903-28.245 7.1381-33.537 35.345-12.949 42.581z" fill="#e6e6e6"/></g></g></g><g transform="matrix(1.2155 0 0 1.1396 -183.1 -95.598)" stroke="#000" stroke-width="2.1242"><path d="m720.93 716.53c45.964-7.2622 65.529-13.383 117.58-32.955 1.1027-0.41425 9.9851-3.4944 11.121-3.7385v14.342c-0.90056 0.19112-9.2688 3.2132-10.128 3.5724-45.14 18.903-75.54 25.168-116.45 30.849z" fill="#ed1c24"/><g fill="none"><path d="m809.08 709.38c-3.7195-2.7864-5.1307-11.501-3.935-13.62"/><path d="m815.57 707.1c-3.1119-3.8061-5.2314-11.415-3.4073-13.804"/><path d="m822.19 704.66c-3.1119-3.8062-4.4249-11.662-2.5998-14.051"/><path d="m829.86 701.68c-3.1129-3.8063-4.7658-11.39-2.9417-13.778"/><path d="m837.21 698.7c-3.1129-3.8062-3.7001-11.548-1.8779-13.937"/><path d="m844.69 695.85c-3.1119-3.8063-2.8423-11.69-1.0182-14.078"/><path d="m801.68 711.83c-3.1119-3.806-4.4247-11.691-2.6006-14.08"/><path d="m750.19 724.24c-2.5746-2.4592-4.054-10.715-2.8583-12.835"/><path d="m757.18 723.11c-3.1119-3.8061-4.4344-10.328-2.6103-12.716"/><path d="m764.4 721.66c-3.1119-3.8062-4.66-10.464-2.8349-12.853"/><path d="m772.08 719.97c-3.1129-3.8063-4.4943-10.724-2.6702-13.113"/><path d="m779.65 718.14c-3.1129-3.8062-4.226-11.031-2.4039-13.42"/><path d="m787.11 716.17c-3.1119-3.8063-4.1302-11.295-2.3061-13.683"/><path d="m794.38 714.09c-2.8368-4.0244-3.9162-10.293-2.3793-13.869"/><path d="m743.45 725.45c-3.1119-3.806-4.6643-10.185-2.8402-12.574"/></g></g><g transform="matrix(1.2098 -.0029138 -.11813 1.1453 -121.23 -94.023)" stroke="#000" stroke-width="2.1242"><path d="m889.2 676.52c13.709 2.4893 23.04 10.112 31.121 24.246 13.789 24.117 12.993 74.476-2.8833 108.59l-13.477-7.8102c16.638-31.988 14.03-79.066 4.3656-95.221-4.0613-6.7883-9.4548-13.709-17.721-15.409z" fill="#ed1c24"/><g fill="none"><path d="m889.64 681.04c0.78545-1.6043 2.0752-3.32 3.4835-3.86"/><path d="m893.57 692.26c0.9742-4.1086 3.7271-10.023 8.4842-11.212"/><path d="m900.37 696.09c2.0672-4.6439 6.2708-8.842 10.5-8.21"/><path d="m905.85 702.49c1.7295-3.4126 7.3012-6.8692 11.775-6.102"/><path d="m910.15 709.93c3.62-3.7374 7.268-5.4044 12.319-4.9417"/><path d="m912.81 717.89c2.3146-1.929 8.3413-5.299 13.346-2.4861"/><path d="m914.55 726.37c2.0867-1.352 7.7108-4.6366 13.642-1.7433"/><path d="m915.51 734.35c3.5416-1.1168 7.5083-3.7142 13.855-0.93622"/><path d="m916.25 743.16c2.729-1.2579 9.9262-3.552 13.73 0.0147"/><path d="m915.9 751.91c3.6968-1.6904 11.031-3.0896 14.055 0.90594"/><path d="m915.34 760.24c2.8613-1.6892 11.665-2.8955 14.037 2.0574"/><path d="m914.36 768.06c4.7846-2.0488 11.444-1.284 14.063 2.4664"/><path d="m912.69 776.95c2.2628-0.81783 10.47-0.17396 13.962 3.8182"/><path d="m910.08 786.64c2.5756-0.59337 11.578-0.11502 14.327 3.48"/><path d="m907.32 794.26c4.882-0.21314 11.59 0.2006 14.338 4.6598"/><path d="m905.12 802.22c2.3497-0.76395 7.5557-1.6387 13.536 3.2282"/></g></g><g transform="matrix(1.05 0 0 1.05 -44.768 -39.633)" stroke-width="2.5"><g transform="matrix(13.353 -1.2289 1.2289 13.353 -17344 -4827.2)" stroke="#000"><path d="m1311.8 549.16c-0.2994 0.32535-1.1213 0.0145-0.8912-0.58801-0.433 0.32958-1.0604-0.3189-0.7063-0.72014-0.5256 0.15135-1.0493-0.5682-0.6927-0.91725-0.9763-0.15034-0.521-1.279 0.1281-1.0756 2.7209 0.3376 3.2806-3.62 5.8079-2.3578 2.0818 1.7486-0.8574 2.0845-0.4278 5.5602 0.1649 0.72722-0.6751 0.87417-0.9896 0.4867-0.1541 0.60227-1.1156 0.55265-1.1534-0.10382-0.2477 0.67599-1.2508 0.2482-1.0749-0.28405z" fill="#ed1c24" stroke-width=".18644"/><g fill="none" stroke-width=".18644"><path d="m1309.5 546.94c2.9601-0.46567 3.5294-3.6538 5.8667-3.4792"/><path d="m1310.2 547.85c2.4072-1.0026 2.8882-3.5699 5.2432-4.3506"/><path d="m1312.9 549.45c0.7107-2.7352 2.9809-4.567 2.6399-5.8972 1.2542 1.4531-1.5175 2.5296-1.4865 6.001"/><path d="m1311.8 549.16c1.2704-2.1276 3.5136-4.7167 3.6457-5.6588-1.6014 1.402-2.8194 3.5147-4.5369 5.0708"/></g><g transform="matrix(-.11475 -.075977 -.075787 .11447 1604 682.24)" fill="#ed1c24" stroke-linecap="square" stroke-linejoin="round" stroke-width="1.3564"><path d="m2314.5 313.93c0 4.9196-4.3375 6.3905-9.6881 6.3905-5.3507 0-9.6883-1.4708-9.6883-6.3905 0-4.9196 3.9308-10.914 9.2815-10.914 5.3488 0 10.092 5.9916 10.095 10.91"/><path d="m2296.4 315.03h16.651c2.2856 0 4.1258 1.5426 4.1258 3.4587s-1.8402 3.4587-4.1258 3.4587h-16.651c-2.2856 0-4.1257-1.5426-4.1257-3.4587s1.8401-3.4587 4.1257-3.4587z"/></g></g></g><g transform="matrix(-1 0 0 1 1148.5 1.6601e-6)"><g transform="matrix(1.2155 0 0 1.1396 -183.1 -95.598)" stroke="#000" stroke-width="2.1242"><path d="m720.93 716.53c45.964-7.2622 65.529-13.383 117.58-32.955 1.1027-0.41425 9.9851-3.4944 11.121-3.7385v14.342c-0.90056 0.19112-9.2688 3.2132-10.128 3.5724-45.14 18.903-75.54 25.168-116.45 30.849z" fill="#ed1c24"/><g fill="none"><path d="m809.08 709.38c-3.7195-2.7864-5.1307-11.501-3.935-13.62"/><path d="m815.57 707.1c-3.1119-3.8061-5.2314-11.415-3.4073-13.804"/><path d="m822.19 704.66c-3.1119-3.8062-4.4249-11.662-2.5998-14.051"/><path d="m829.86 701.68c-3.1129-3.8063-4.7658-11.39-2.9417-13.778"/><path d="m837.21 698.7c-3.1129-3.8062-3.7001-11.548-1.8779-13.937"/><path d="m844.69 695.85c-3.1119-3.8063-2.8423-11.69-1.0182-14.078"/><path d="m801.68 711.83c-3.1119-3.806-4.4247-11.691-2.6006-14.08"/><path d="m750.19 724.24c-2.5746-2.4592-4.054-10.715-2.8583-12.835"/><path d="m757.18 723.11c-3.1119-3.8061-4.4344-10.328-2.6103-12.716"/><path d="m764.4 721.66c-3.1119-3.8062-4.66-10.464-2.8349-12.853"/><path d="m772.08 719.97c-3.1129-3.8063-4.4943-10.724-2.6702-13.113"/><path d="m779.65 718.14c-3.1129-3.8062-4.226-11.031-2.4039-13.42"/><path d="m787.11 716.17c-3.1119-3.8063-4.1302-11.295-2.3061-13.683"/><path d="m794.38 714.09c-2.8368-4.0244-3.9162-10.293-2.3793-13.869"/><path d="m743.45 725.45c-3.1119-3.806-4.6643-10.185-2.8402-12.574"/></g></g><g transform="matrix(1.2098 -.0029138 -.11813 1.1453 -121.23 -94.023)" stroke="#000" stroke-width="2.1242"><path d="m889.2 676.52c13.709 2.4893 23.04 10.112 31.121 24.246 13.789 24.117 12.993 74.476-2.8833 108.59l-13.477-7.8102c16.638-31.988 14.03-79.066 4.3656-95.221-4.0613-6.7883-9.4548-13.709-17.721-15.409z" fill="#ed1c24"/><g fill="none"><path d="m889.64 681.04c0.78545-1.6043 2.0752-3.32 3.4835-3.86"/><path d="m893.57 692.26c0.9742-4.1086 3.7271-10.023 8.4842-11.212"/><path d="m900.37 696.09c2.0672-4.6439 6.2708-8.842 10.5-8.21"/><path d="m905.85 702.49c1.7295-3.4126 7.3012-6.8692 11.775-6.102"/><path d="m910.15 709.93c3.62-3.7374 7.268-5.4044 12.319-4.9417"/><path d="m912.81 717.89c2.3146-1.929 8.3413-5.299 13.346-2.4861"/><path d="m914.55 726.37c2.0867-1.352 7.7108-4.6366 13.642-1.7433"/><path d="m915.51 734.35c3.5416-1.1168 7.5083-3.7142 13.855-0.93622"/><path d="m916.25 743.16c2.729-1.2579 9.9262-3.552 13.73 0.0147"/><path d="m915.9 751.91c3.6968-1.6904 11.031-3.0896 14.055 0.90594"/><path d="m915.34 760.24c2.8613-1.6892 11.665-2.8955 14.037 2.0574"/><path d="m914.36 768.06c4.7846-2.0488 11.444-1.284 14.063 2.4664"/><path d="m912.69 776.95c2.2628-0.81783 10.47-0.17396 13.962 3.8182"/><path d="m910.08 786.64c2.5756-0.59337 11.578-0.11502 14.327 3.48"/><path d="m907.32 794.26c4.882-0.21314 11.59 0.2006 14.338 4.6598"/><path d="m905.12 802.22c2.3497-0.76395 7.5557-1.6387 13.536 3.2282"/></g></g><g transform="matrix(1.05 0 0 1.05 -44.768 -39.633)" stroke-width="2.5"><g transform="matrix(13.353 -1.2289 1.2289 13.353 -17344 -4827.2)" stroke="#000"><path d="m1311.8 549.16c-0.2994 0.32535-1.1213 0.0145-0.8912-0.58801-0.433 0.32958-1.0604-0.3189-0.7063-0.72014-0.5256 0.15135-1.0493-0.5682-0.6927-0.91725-0.9763-0.15034-0.521-1.279 0.1281-1.0756 2.7209 0.3376 3.2806-3.62 5.8079-2.3578 2.0818 1.7486-0.8574 2.0845-0.4278 5.5602 0.1649 0.72722-0.6751 0.87417-0.9896 0.4867-0.1541 0.60227-1.1156 0.55265-1.1534-0.10382-0.2477 0.67599-1.2508 0.2482-1.0749-0.28405z" fill="#ed1c24" stroke-width=".18644"/><g fill="none" stroke-width=".18644"><path d="m1309.5 546.94c2.9601-0.46567 3.5294-3.6538 5.8667-3.4792"/><path d="m1310.2 547.85c2.4072-1.0026 2.8882-3.5699 5.2432-4.3506"/><path d="m1312.9 549.45c0.7107-2.7352 2.9809-4.567 2.6399-5.8972 1.2542 1.4531-1.5175 2.5296-1.4865 6.001"/><path d="m1311.8 549.16c1.2704-2.1276 3.5136-4.7167 3.6457-5.6588-1.6014 1.402-2.8194 3.5147-4.5369 5.0708"/></g><g transform="matrix(-.11475 -.075977 -.075787 .11447 1604 682.24)" fill="#ed1c24" stroke-linecap="square" stroke-linejoin="round" stroke-width="1.3564"><path d="m2314.5 313.93c0 4.9196-4.3375 6.3905-9.6881 6.3905-5.3507 0-9.6883-1.4708-9.6883-6.3905 0-4.9196 3.9308-10.914 9.2815-10.914 5.3488 0 10.092 5.9916 10.095 10.91"/><path d="m2296.4 315.03h16.651c2.2856 0 4.1258 1.5426 4.1258 3.4587s-1.8402 3.4587-4.1258 3.4587h-16.651c-2.2856 0-4.1257-1.5426-4.1257-3.4587s1.8401-3.4587 4.1257-3.4587z"/></g></g></g></g></g><g transform="translate(-1390 109.9)"><g transform="translate(-80.369 -21.964)"><g transform="translate(-.0835 .021014)"><path class="fil2 str1" transform="translate(1326.2,21.239)" d="m575.49 346.87h233.47v380.71c0.23 67.642-55.381 105.52-121.76 138.48l-111.71 55.479-111.71-55.479c-66.378-32.966-121.99-70.84-121.76-138.48l1e-4 -380.71z" fill="#e6e6e6"/><path class="fil2 str1" transform="translate(1326.2,21.239)" d="m575.49 346.87h233.47l-442.73 449.19c-15.004-19.185-24.295-41.325-24.203-68.473l1e-4 -380.71z" fill="#0071bc"/></g></g></g><g transform="translate(-1395.1 101.53)" stroke="#000"><g transform="matrix(1.3123 0 0 1.3123 778.8 -423.41)" fill="#e6e6e6" stroke-width="1.288"><path transform="translate(29.938 .03125)" d="m696.84 620.94c-10.227 10.256-24.536 22.109-25.031 44.031-0.59194 26.18 18.279 45.834 19.594 67.431 1.6496 27.088-10.414 36.105-10.969 48.156-0.42371 9.2093 6.0965 16.689 16.406 23.406 10.31-6.7176 16.83-14.197 16.406-23.406-0.55447-12.052-12.587-21.068-10.938-48.156 1.3151-21.597 20.154-41.251 19.562-67.431-0.49566-21.922-14.804-33.775-25.031-44.031z"/><path d="m676.78 678.61c-13.884-0.30368-25.58 9.1596-25.548 24.28 0.0487 22.882 19.449 36.09 36.072 28.594-5.7627-5.0982-4.4084-14.601 2.239-16.612 9.1465-2.7676 19.927 10.015 19.552 25.365-0.34756 14.234-6.2863 20.32-14.132 20.876-3.6629 0.25956-9.0954-1.3632-11.784-6.4434-3.2557 10.793 1.3376 22.072 15.015 20.662 11.187-1.1528 18.724-15.483 20.098-35.145 1.6956-24.258-19.575-61.097-41.514-61.577z"/><path d="m776.8 678.61c13.884-0.30368 25.58 9.1596 25.548 24.28-0.0487 22.882-19.449 36.09-36.072 28.594 5.7627-5.0982 4.4084-14.601-2.239-16.612-9.1465-2.7676-19.927 10.015-19.552 25.365 0.34756 14.234 6.2863 20.32 14.132 20.876 3.6629 0.25956 9.0954-1.3632 11.784-6.4434 3.2557 10.793-1.3376 22.072-15.015 20.662-11.187-1.1528-18.724-15.483-20.098-35.145-1.6956-24.258 19.575-61.097 41.514-61.577z"/><path d="m704.01 734.8c-6.0828-0.40407-6.7818 11.67 0 11.681h45.238c7.2835 0.21472 6.4333-12.085 0-11.681z"/></g><g transform="matrix(1.3699 0 0 1.1582 1055.2 240.4)" stroke-width="1.2504"><path d="m659.24 439.01 41.326 4e-3 -38.473 63.768-37.259-6e-3z" fill="#803300"/><path d="m657.69 413.89 38.828 0.0343c-3.3948 5.8992-5.9774 19.638-3.0416 28.024l-33.095 54.854-14.896-0.11096z" fill="#e6e6e6"/><g transform="translate(48.313,-277.89)"><path d="m653.04 687.76-38.473 63.768c-4.8957 9.6239-3.8372 20.837-0.78677 29.134l-156.3-0.0249c-4.5559-7.9291-4.0589-20.574-1.1822-29.134l44.441-63.76z" fill="#803300" stroke-width="1.2504"/><path d="m456.3 751.51 158.27 0.0252" fill="none"/><path d="m476.22 749.38h0.28063c1.8853 0 3.7736 1.5545 3.403 3.403-1.8308 9.1322-1.5204 17.959 0 26.612 0.32625 1.8568-1.5177 3.403-3.403 3.403h-0.28063c-1.8852 0-3.1505-1.5347-3.403-3.403-1.1411-8.4428-2.5734-16.776 0-26.612 0.47719-1.8239 1.5177-3.403 3.403-3.403z" fill="#803300" stroke-linecap="square" stroke-linejoin="round"/></g><path d="m582.29 471.5h0.28063c1.8853 0 3.7736 1.5545 3.403 3.403-1.8308 9.1322-1.5204 17.959 0 26.612 0.32625 1.8568-1.5177 3.403-3.403 3.403h-0.28063c-1.8852 0-3.1505-1.5347-3.403-3.403-1.1411-8.4428-2.5734-16.776 0-26.612 0.47719-1.8239 1.5177-3.403 3.403-3.403z" fill="#803300" stroke-linecap="square" stroke-linejoin="round"/><path d="m641 471.32h0.28063c1.8853 0 3.7736 1.5545 3.403 3.403-1.8308 9.1322-1.5204 17.959 0 26.612 0.32625 1.8568-1.5177 3.403-3.403 3.403h-0.28063c-1.8852 0-3.1505-1.5347-3.403-3.403-1.1411-8.4428-2.5734-16.776 0-26.612 0.47719-1.8239 1.5177-3.403 3.403-3.403z" fill="#803300" stroke-linecap="square" stroke-linejoin="round"/></g><g transform="translate(1395.1 -101.53)"><g fill="#ed1c24"><g transform="matrix(8.1267 .29301 -.29301 8.1267 -246.31 -572.69)" fill-rule="evenodd"><g stroke-width=".19368"><path class="fil15 str5" d="m86.032 173.69s1.0061-1.007 2.0728-2.2529c1.0666-1.246 2.1936-2.731 2.1936-2.731-0.5529 0.8316-0.3639 1.3491-0.421 2.1254l0.164 0.2584 0.0057 9e-3 0.164 0.2583c0.8566 0.1141 1.1683 0.636 2.1896 0.4735 0 0-1.7425 0.4042-3.3347 0.8689-1.5922 0.4648-3.034 0.9903-3.034 0.9903z" nodetypes="csccccccsc"/><path class="fil15 str5" d="m86.496 173.4 3.551-2.3045" nodetypes="cc"/><path class="fil16 str7" d="m89.858 170.8 0.3781 0.5957c0.0275 0.0433 0.0848 0.056 0.1281 0.0284 0.0432-0.0276 0.056-0.0851 0.0285-0.1285l-0.3781-0.5956c-0.0275-0.0434-0.0848-0.0561-0.1281-0.0284-0.0432 0.0276-0.056 0.0851-0.0285 0.1284z" stroke-opacity=".90196"/><path d="m90.044 170.75 0.6916-0.575 0.4425 0.697-0.8033 0.383z"/></g><path transform="matrix(1.1025,0,0,1.1025,-9.6558,-17.26)" d="m97.524 166.58-0.2971-0.525-6.1273 4.0186 0.32248 0.50796z" stroke-linejoin="round" stroke-width=".17567"/></g><g transform="translate(-1403.1 95.532)"><g transform="matrix(.40293 0 -.025883 .4296 1637.1 511.51)" fill-rule="evenodd"><path d="m755.43 291.06c18.278-15.077 18.09-46.948 47.773-46.021-31.637-21.627-42.394 9.863-56.577 14.621 22.527-26.359 1.9309-32.707 20.116-62.072-31.473 2.516-22.751 41.088-42.724 51.178 14.953-44.358-10.747-54.135-3.4238-82.984-27.08 30.301 0.67029 36.479-24.86 78.298 6.536-54.686-31.174-74.344-21.377-116.75-31.14 42.551 0.87316 66.195-10.412 114.02-21.408-25.116-3.348-59.004-39.775-73.03 19.235 22.824-6.8123 40.056 11.918 81.127-17.632-8.515-16.349-53.846-49.734-53.209 21.347 25.055 6.7683 39.553 23.682 64.078-14.033-6.1972-32.512-30.293-54.43-23.308 30.368 16.257 29.187 39.262 46.533 52.22 31.551 23.57 57.453 20.481 77.55 43.228 16.23-23.262 56.473-25.505 75.742-41.401z" fill="#ed1c24" fill-rule="evenodd" stroke-width="3.7856"/><path d="m594.97 265.04c8.7752 15.494 21.191 23.588 32.521 29.903 11.237 5.3928 13.927 7.4167 30.476 16.983 16.013 9.2567 11.557 20.113 17.439 19.748l4.8321-0.98805c7.7305-18.649 28.119-26.371 47.288-32.751 18.754-6.2417 27.139-23.232 36.896-37.291-14.817 9.217-23.456 18.392-31.068 20.488-13.63 3.753-18.365 6.4533-23.673 11.29 6.7251-11.847 17.022-17.973 23.499-26.211 9.0303-11.485 11.413-17.255 12.32-27.251-6.2567 11.686-13.013 17.845-26.735 25.628-9.7409 5.5245-15.439 8.5591-21.439 18.75 2.4312-13.107 8.79-20.205 14.413-30.836 5.1609-9.7575 5.265-16.92 5.363-28.943-4.733 13.542-9.168 19.972-14.503 26.071-5.4329 6.2101-15.607 11.092-18.605 28.862-4.691-19.819 7.8486-41.644-5.4907-70.22 1.2842 29.264-13.372 44.015-10.249 68.583 0.19951-17.608-17.735-26.826-25.911-54.438-7.662 26.022 11.753 42.077 11.967 59.267-4.9081-21.914-32.069-21.723-41.562-43.418 1.2356 30.85 21.27 28.018 30.829 52.199-15.173-14.761-32.142-10.589-48.608-25.426z" fill="none" stroke-width="1.0964"/></g><path d="m1888.4 644.8c0.6416 4.183 3.2428 6.8318 1.8906 9.1579-2.1433 3.6869-10.551-0.64357-20.695 0.67387-10.969 1.4246-23.95 10.971-25.78 29.441-1.9477 19.659 9.4724 42.679 21.724 60.128 9.0899 12.946 30.269 34.506 45.52 33.041 8.5718-0.82318 13.89-11.226 14.724-21.146 0.8084-9.6136 3.1149-11.782 8.6619-18.16 10.156-11.678 27.853-28.966 26.82-51.102-0.677-14.5-9.0664-27.726-22.603-30.974-13.014-3.1227-23.025 2.9696-25.118-1.9019-1.1683-2.7191 2.2544-5.7162 2.6815-8.9259-7.6528 1.932-20.804 1.9035-27.826-0.23207z" stroke-width="1.575"/></g><g fill-rule="evenodd"><g transform="matrix(8.1267 .29301 -.29301 8.1267 -285.94 -548.18)" stroke-linejoin="round" stroke-width=".19368"><path transform="matrix(-.83496 .55031 .55031 .83496 0 0)" d="m-13.213 192.11h12.819c0.071631 0.196 0.078506 0.40124 0 0.61867h-12.819z"/><path transform="translate(0 -.077108)" d="m115.29 154.19 0.077-1.874-3.6299 2.2991-0.1521 1.9609z"/><path transform="translate(.23132 .11566)" d="m115.45 154.48 1.698 0.821-3.822 2.332-1.728-0.657z"/></g><g stroke-linejoin="bevel" stroke-width=".5"><path transform="translate(-1395.1 101.53)" d="m1976.2 636.34-1.8106 15.891"/><path transform="translate(-1395.1 101.53)" d="m1980.3 634.09-1.6312 15.783"/><path transform="translate(-1395.1 101.53)" d="m1984.6 631.59-1.4285 15.549"/><path transform="translate(-1395.1 101.53)" d="m1989 628.94-1.3726 15.349"/><path transform="translate(-1395.1 101.53)" d="m1993.3 626.39-1.3282 15.387"/><path transform="translate(-1395.1 101.53)" d="m1997.6 623.89-1.2462 15.413"/><path transform="translate(-1395.1 101.53)" d="m1990.8 662.87-13.473-6.2934"/><path transform="translate(-1395.1 101.53)" d="m1994.9 660.12-13.073-6.3811"/><path transform="translate(-1395.1 101.53)" d="m1999.4 657.83-13.128-6.7738"/><path transform="translate(-1395.1 101.53)" d="m2004 655.59-13.419-7.0558"/><path transform="translate(-1395.1 101.53)" d="m2008.4 652.8-13.398-6.9115"/><path transform="translate(-1395.1 101.53)" d="m2012.9 650.3-13.55-7.0843"/></g></g></g><g fill="none" stroke-linejoin="bevel" stroke-width="1.5"><path d="m527.71 777.31c-0.35385 7.7077 3.1906 12.534 8.5644 16.179" stroke="#000"/><path d="m480.13 750.75c3.5453 0.42679 8.2631 1.6405 12.65 3.5667"/><path d="m516.69 751.34c-3.2459 0.46729-8.5195 1.3195-12.547 2.8864"/></g></g></g><g transform="translate(-143 130.58)"><g transform="translate(-1350.3 41.572)" fill="none" stroke="#000"><path transform="translate(1349.1,-62.98)" d="m808.9 346.89-442.76 449.19" stroke-width="2"/><path class="fil2 str1" transform="translate(1349.1,-62.98)" d="m575.43 346.89h233.47v380.71c0.23 67.642-55.381 105.52-121.76 138.48l-111.71 55.479-111.71-55.479c-66.378-32.966-121.99-70.84-121.76-138.48l1e-4 -380.71z" stroke-linejoin="bevel" stroke-width="4"/></g></g><g transform="translate(.00015577 -.0065942)"><path d="m151.84 1148.5c2.0632-0.9391 3.6062-1.9778 4.6293-3.1162l-9.4983-29.959c-1.677-0.2824-3.6477-0.2071-5.912 0.2258l-0.35582-2.0852 15.368-4.8723 0.35582 2.0853c-1.9152 0.8921-3.4398 1.925-4.5738 3.0986l9.4983 29.959c1.4434 0.3158 3.3955 0.2464 5.8565-0.2082l0.37341 2.1407-15.424 4.8899zm21.46-6.8294c2.0656-0.9337 3.6113-1.9685 4.6373-3.1043l-9.4213-29.984c-1.6763-0.2867-3.6471-0.2165-5.9125 0.2106l-0.35046-2.0861 8.8285-2.7741 25.795 20.934-7.2056-22.932c-1.5166-0.2963-3.4504-0.2377-5.8015 0.1757l-0.35046-2.0862 14.048-4.414 0.35046 2.0861c-1.9661 0.8618-3.5119 1.8966-4.6373 3.1043l10.538 33.537-2.3876 0.7502-27.864-22.664 7.8686 25.042c1.4426 0.3195 3.3949 0.2551 5.857-0.1932l0.42343 2.1243-14.103 4.4315zm66.864-20.672c2.0862-0.8866 3.6551-1.886 4.7065-2.9982l-8.7384-30.19c-1.6694-0.3247-3.6413-0.2993-5.9158 0.076l-0.30303-2.0936 15.486-4.4824 0.30302 2.0935c-1.9371 0.8435-3.4873 1.8375-4.6506 2.9821l8.7384 30.19c1.4349 0.3522 3.3882 0.3322 5.8599-0.06l0.31921 2.1495-15.542 4.4987zm21.834-6.326c2.1446-0.8457 3.6997-1.797 4.6652-2.8538l-8.0045-30.392c-1.586-0.3848-3.5204-0.4171-5.8034-0.097l-0.25222-2.1003 15.59-4.106 0.25222 2.1003c-1.9945 0.8061-3.5871 1.7672-4.7778 2.8833l8.0935 30.73 10.525-2.772c0.72836-1.9573 0.97674-4.2897 0.74513-6.9973 0.27053-0.1916 0.5934-0.3368 0.96862-0.4356 0.37521-0.099 0.80277-0.1513 1.2827-0.1573l2.0282 9.7577-25.102 6.6112zm30.94-7.8303c2.1782-0.7551 3.7718-1.6403 4.7808-2.6556l-6.7231-30.702c-1.5684-0.4509-3.4998-0.5642-5.7942-0.3398l-0.16393-2.1091 15.749-3.4487 0.16393 2.109c-2.0266 0.7219-3.658 1.6154-4.8945 2.6805l6.7978 31.043 10.632-2.3282c0.80979-1.925 1.1557-4.245 1.0379-6.9599 0.27833-0.1801 0.607-0.3117 0.98603-0.3947s0.80842-0.1174 1.2882-0.1033l1.6173 9.8342-25.357 5.5528zm46.585-5.928c-5.6358 0.8782-9.9433-0.1784-12.923-3.1699-2.9411-2.9974-4.9045-7.659-5.8902-13.985-0.99174-6.3642-0.54282-11.421 1.3468-15.172 1.9279-3.7561 5.7098-6.0733 11.346-6.9515 5.5974-0.8723 9.8696 0.2095 12.817 3.2452 2.9794 2.9915 4.965 7.6693 5.9567 14.033 0.98576 6.3259 0.51468 11.367-1.4132 15.123-1.8956 3.7119-5.642 6.0039-11.239 6.8762zm-0.43912-2.8179c2.722-0.4242 4.6788-1.4753 5.8703-3.1532 1.2239-1.7222 1.8968-3.8298 2.0188-6.3228s-0.0798-5.4264-0.60558-8.8002c-0.53171-3.4121-1.235-6.2869-2.1098-8.6246-0.87478-2.3377-2.1571-4.1406-3.847-5.4088-1.6515-1.2741-3.8383-1.6991-6.5603-1.275-2.722 0.4242-4.695 1.4974-5.9188 3.2197-1.2239 1.7222-1.8968 3.8298-2.0188 6.3228-0.12799 2.4547 0.0739 5.388 0.60558 8.8001 0.81848 5.2524 2.1316 9.2693 3.9395 12.051 1.8402 2.7369 4.7156 3.8007 8.6261 3.1914zm67.586-2.4935c-4.964 0.1576-8.6028-0.7362-10.916-2.6815-2.2746-1.9464-3.4814-5.1108-3.6205-9.4932l-0.72755-22.92c-1.5371-0.7276-3.4346-1.1914-5.6926-1.3915l0.16622-2.1016 16.288-0.517-0.28256 2.1052c-2.1982 0.458-3.9268 1.037-5.1857 1.7369l0.72756 22.92c0.10833 3.4128 0.88458 5.8532 2.3287 7.3214 1.4817 1.4282 3.7544 2.0936 6.8182 1.9963 3.025-0.096 5.3248-1.023 6.8994-2.7811 1.5747-1.7581 2.3109-4.2466 2.2087-7.4655l-0.71648-22.571c-1.4596-0.7301-3.3571-1.194-5.6926-1.3916l0.22438-2.1034 14.718-0.4672-0.22438 2.1034c-2.2758 0.4605-4.0431 1.0407-5.302 1.7406l0.71648 22.571c0.13173 4.1497-0.91078 7.3855-3.1275 9.7074-2.1779 2.3208-5.3805 3.5482-9.6077 3.6824zm24.345-3.0412c2.2554-0.2271 4.0502-0.7156 5.3846-1.4654l0.6208-31.423c-1.4976-0.8058-3.3882-1.367-5.6716-1.6838l0.33234-2.0892 9.2523 0.1828 17.783 28.061 0.4748-24.033c-1.3432-0.7639-3.195-1.3244-5.5552-1.6815l0.33233-2.0891 14.722 0.2908-0.33234 2.0891c-2.1382 0.1906-3.9331 0.6791-5.3846 1.4654l-0.69438 35.147-2.5022-0.049-19.193-30.359-0.51848 26.244c1.2656 0.7624 3.1368 1.3233 5.6134 1.6827l-0.2753 2.1484-14.78-0.292zm58.29 4.7699c-5.6852-0.4602-9.6276-2.4922-11.827-6.096-2.161-3.6006-2.9832-8.5915-2.4666-14.973 0.51975-6.42 2.1356-11.233 4.8477-14.439 2.7507-3.203 6.9686-4.5743 12.654-4.1141 5.6465 0.4572 9.5487 2.5054 11.707 6.1447 2.1996 3.6038 3.0396 8.6156 2.5199 15.036-0.51661 6.3814-2.1503 11.174-4.901 14.376-2.7089 3.1674-6.8866 4.5226-12.533 4.0654zm0.23013-2.8426c2.7549 0 4.8938-0.3434 6.4438-1.6972 1.5918-1.3893 2.7376-3.2819 3.4376-5.6777 0.70003-2.3958 1.1878-5.2954 1.4633-8.6988 0.27866-3.442 0.26523-6.4016-0.0403-8.8788-0.30552-2.4772-1.132-4.5294-2.4796-6.1568-1.3088-1.6241-3.3362-2.5473-6.0821-2.7697-2.7459-0.2222-4.9147 0.3613-6.5065 1.7506-1.5918 1.3894-2.7376 3.2819-3.4376 5.6777-0.69689 2.3572-1.1847 5.2567-1.4633 8.6987-0.42895 5.2985-0.0887 9.5108 1.0207 12.637 1.1512 3.0907 3.6863 5.115 7.644 5.115zm65.672 11.637c-4.8498-1.0705-7.486-2.4985-9.2487-4.9538-1.7248-2.4469-2.1146-5.8111-1.1695-10.093l4.943-22.392c-1.3104-1.0839-3.0351-2.0011-5.1741-2.7514l0.67897-1.9958 15.913 3.5127-0.79264 1.9708c-2.2433-0.098-4.0612 0.037-5.4538 0.4054l-4.943 22.392c-0.73603 3.3343-0.5851 5.8908 0.45272 7.6695 1.0841 1.7493 2.4527 2.6193 5.4459 3.28 2.9554 0.6523 6.1385 0.097 8.0979-1.2185 1.9594-1.3159 3.2974-3.5437 3.9803-6.691l4.7002-21.661c-1.2346-1.0673-2.9593-1.9844-5.1741-2.7514l0.73581-1.9833 14.546 2.7832-0.73581 1.9833c-2.3191-0.1146-4.1749 0.012-5.5674 0.3803l-4.8677 22.051c-0.89492 4.0541-2.7026 6.9333-5.4232 8.6374-2.6827 1.7125-6.8148 2.3362-10.945 1.4245zm25.045 2.8936c2.2412 0.3395 4.1012 0.3115 5.5798-0.084l8.3962-30.287c-1.2509-1.1521-2.9432-2.1648-5.0767-3.0381l0.84018-1.9414 8.9178 2.4722 10.266 31.595 6.4215-23.164c-1.1117-1.0732-2.7666-2.0755-4.9645-3.0069l0.84018-1.9414 14.19 3.9338-0.84018 1.9413c-2.1187-0.3457-3.9786-0.3177-5.5798 0.084l-9.3913 33.876-2.4117-0.6685-11.062-34.171-7.0124 25.295c1.037 1.0525 2.7105 2.0601 5.0206 3.0226l-0.79964 2.013-14.246-3.9493zm58.344 19.514c-4.7511-1.4468-7.9092-3.4631-9.4743-6.0489-1.528-2.5744-1.6533-5.9588-0.37599-10.153l6.6804-21.937c-1.2215-1.1832-2.8692-2.2325-4.9429-3.1479l0.8331-1.9366 15.59 4.7475-0.94445 1.9027c-2.2288-0.2731-4.0517-0.2808-5.4688-0.023l-6.6804 21.937c-0.99471 3.2665-1.0444 5.827-0.14893 7.6815 0.94384 1.8287 2.8819 3.1895 5.8143 4.0825 2.8952 0.8817 5.371 0.7433 7.4273-0.4152 2.0563-1.1584 3.5536-3.278 4.4918-6.3589l6.5786-21.603c-1.1473-1.1606-2.7949-2.2099-4.9429-3.1479l0.88878-1.9196 14.086 4.2897-0.88878 1.9196c-2.303-0.2957-4.163-0.3147-5.5801-0.057l-6.5786 21.603c-1.2095 3.9717-3.237 6.7005-6.0826 8.1864-2.8085 1.4973-6.2356 1.6298-10.282 0.3977zm23.944 4.6914c2.1787 0.4459 4.02 0.4796 5.5236 0.1011l9.49-29.962c-1.1343-1.1733-2.7517-2.235-4.8521-3.1852l0.85461-1.9271 10.709 3.3918 2.8683 34.12 21.545-26.388 10.598 3.3567-0.91009 1.9096c-2.1048-0.4225-3.9645-0.4621-5.5791-0.1188l-9.49 29.962c0.99807 1.0895 2.6339 2.1571 4.9076 3.2028l-0.87218 1.9826-15.425-4.8856 0.92767-1.965c1.1079 0.2287 2.0853 0.3552 2.9324 0.3793 0.88408 0.036 1.7663-0.051 2.6467-0.2606l8.172-25.801-0.22194-0.07-20.56 25.784-3.2736-1.0369-2.3634-33.594-0.22195-0.07-8.3301 26.3c1.0486 1.1868 2.6845 2.2544 4.9076 3.2028l-0.87218 1.9826-14.038-4.4463z" fill-rule="evenodd" stroke="#000" stroke-linejoin="bevel" stroke-width=".5" aria-label="IN  ILLO  UNO  UNUM"/></g></svg>